<?xml version="1.0" encoding="UTF-8" standalone="no"?>
<!-- Created with Inkscape (http://www.inkscape.org/) -->

<svg
   xmlns:dc="http://purl.org/dc/elements/1.1/"
   xmlns:cc="http://creativecommons.org/ns#"
   xmlns:rdf="http://www.w3.org/1999/02/22-rdf-syntax-ns#"
   xmlns:svg="http://www.w3.org/2000/svg"
   xmlns="http://www.w3.org/2000/svg"
   xmlns:sodipodi="http://sodipodi.sourceforge.net/DTD/sodipodi-0.dtd"
   xmlns:inkscape="http://www.inkscape.org/namespaces/inkscape"
   version="1.1"
   id="svg3729"
   width="899.57184"
   height="588.80847"
   viewBox="0 0 899.57183 588.80847"
   sodipodi:docname="QTOF.svg"
   inkscape:export-filename="C:\developer\github\scottwalmsley.github.io\assets\img\QTOF.png"
   inkscape:export-xdpi="300.07828"
   inkscape:export-ydpi="300.07828"
   inkscape:version="0.92.3 (2405546, 2018-03-11)">
  <metadata
     id="metadata3735">
    <rdf:RDF>
      <cc:Work
         rdf:about="">
        <dc:format>image/svg+xml</dc:format>
        <dc:type
           rdf:resource="http://purl.org/dc/dcmitype/StillImage" />
        <dc:title></dc:title>
      </cc:Work>
    </rdf:RDF>
  </metadata>
  <defs
     id="defs3733" />
  <sodipodi:namedview
     pagecolor="#ffffff"
     bordercolor="#666666"
     borderopacity="1"
     objecttolerance="10"
     gridtolerance="10"
     guidetolerance="10"
     inkscape:pageopacity="0"
     inkscape:pageshadow="2"
     inkscape:window-width="1536"
     inkscape:window-height="801"
     id="namedview3731"
     showgrid="false"
     fit-margin-top="20"
     fit-margin-left="20"
     fit-margin-right="20"
     fit-margin-bottom="20"
     inkscape:zoom="0.54117239"
     inkscape:cx="228.79517"
     inkscape:cy="175.86933"
     inkscape:window-x="-8"
     inkscape:window-y="-8"
     inkscape:window-maximized="1"
     inkscape:current-layer="svg3729"
     inkscape:pagecheckerboard="false" />
  <g
     id="g49"
     inkscape:export-xdpi="92.010239"
     inkscape:export-ydpi="92.010239">
    <g
       transform="matrix(0.83223882,0,0,0.86781676,24.848391,7.9438805)"
       id="g3786">
      <path
         inkscape:connector-curvature="0"
         id="path3743"
         d="m 143.11478,520.84541 c -4.33688,-0.45569 -12.43688,-1.73946 -18,-2.85282 -5.56313,-1.11335 -17.99617,-3.15663 -27.62898,-4.54062 -20.916258,-3.00513 -33.684392,-5.20148 -35.013583,-6.02296 -1.705884,-1.05429 -1.049737,-2.50286 1.587957,-3.50572 3.186822,-1.21163 2.223742,-3.12568 -1.385304,-2.75319 L 60,501.44617 l 0.364754,-26 c 0.200615,-14.3 0.76278,-26.42717 1.249256,-26.94926 0.486476,-0.52209 2.347336,-1.42209 4.135246,-2 2.502994,-0.80903 3.324871,-1.69722 3.573002,-3.8612 0.478618,-4.17413 -1.484494,-5.97548 -5.658676,-5.19241 l -3.464681,0.64999 0.724345,-44.82355 c 0.705363,-43.64892 0.779391,-44.88252 2.824864,-47.07356 1.155285,-1.2375 2.895519,-2.25 3.867187,-2.25 2.380171,0 3.205005,-1.58768 2.429689,-4.67678 -0.592035,-2.35886 -0.958145,-2.51277 -4.594143,-1.93135 -2.828611,0.45231 -3.975353,0.27335 -4.037132,-0.63005 -0.315575,-4.61469 0.284481,-38.27348 0.694142,-38.93633 0.278804,-0.45111 2.303978,-1.10757 4.500387,-1.45879 3.971926,-0.63514 3.991848,-0.66078 3.692615,-4.75264 -0.277596,-3.79602 -0.53278,-4.12628 -3.300855,-4.27217 -1.65,-0.087 -3.593502,-0.19946 -4.318894,-0.25 -1.066028,-0.0743 -1.182699,-3.30332 -0.608533,-16.8419 0.440573,-10.38851 1.131372,-17.02903 1.818895,-17.48469 0.609692,-0.40407 2.315708,-0.74158 3.791144,-0.75 5.14802,-0.0294 4.936936,-7.6414 -0.240613,-8.6769 -4.571337,-0.91427 -5.038672,-2.24709 -4.72813,-13.4844 L 63,219.44618 82,216.2597 c 10.45,-1.75257 21.3257,-3.21507 24.16821,-3.25 7.93851,-0.0976 8.33179,-0.43027 8.33179,-7.04838 0,-6.51517 1.89081,-11.81981 6.11624,-17.15904 2.97727,-3.76206 3.62245,-6.28153 1.88376,-7.3561 -0.55,-0.33992 -1,-2.75868 -1,-5.37502 0,-4.14432 0.43385,-5.14108 3.36861,-7.73932 1.85273,-1.64029 3.68306,-3.97309 4.06739,-5.184 0.52891,-1.66647 1.47243,-2.19794 3.88139,-2.18635 1.75043,0.008 3.85338,0.43939 4.6732,0.95771 1.30739,0.82657 1.28072,1.29768 -0.21697,3.83307 -1.66558,2.81959 -1.64691,2.94342 0.75941,5.03568 1.90869,1.65959 2.46697,3.1196 2.46697,6.45162 0,2.36863 -0.4947,4.80131 -1.09934,5.40595 -1.15285,1.15285 -0.34456,5.30065 1.03295,5.30065 1.74077,0 8.11717,-9.4217 7.41204,-10.95196 -0.39233,-0.85142 -0.89279,-3.83361 -1.11213,-6.6271 -0.37016,-4.71437 -0.14156,-5.34393 3.18384,-8.76819 1.97045,-2.02902 3.58264,-4.07585 3.58264,-4.5485 0,-2.03128 3.10028,-3.30802 6.48904,-2.67228 3.73986,0.7016 4.36758,2.2235 2.28953,5.55098 -1.03314,1.65432 -0.87898,2.27484 1,4.02539 1.72019,1.60259 2.22143,3.19205 2.22143,7.04418 0,2.73604 0.43181,5.75601 0.95959,6.71105 0.52777,0.95504 1.40846,3.76143 1.95708,6.23643 1.55286,7.0054 3.58429,13.83431 4.34023,14.59024 0.37793,0.37792 1.1109,-0.38776 1.62882,-1.70155 0.51792,-1.31378 2.10551,-3.93861 3.52798,-5.83296 2.69027,-3.58274 3.30179,-6.49549 1.5863,-7.55573 -0.55,-0.33992 -1,-2.41295 -1,-4.60677 0,-3.04562 0.63626,-4.5784 2.69099,-6.48265 2.61306,-2.4217 2.64314,-2.57493 1.03873,-5.29098 -1.25448,-2.12367 -1.37269,-3.07663 -0.49099,-3.95832 1.55026,-1.55027 4.95569,-1.47082 7.19675,0.1679 1.55169,1.13462 1.63582,1.66909 0.5748,3.65163 -1.07121,2.00157 -1.02646,2.23939 0.32392,1.7212 2.46574,-0.9462 7.6658,6.81134 7.6658,11.43599 0,2.05918 -0.45,4.02209 -1,4.36201 -1.70463,1.05352 -1.11714,3.64028 1.9106,8.41245 1.60083,2.52315 3.47405,6.5067 4.16272,8.85234 1.21224,4.12896 1.35845,4.24484 4.59082,3.63844 3.69726,-0.69361 20.37171,2.9256 24.05751,5.22172 1.2219,0.7612 4.5969,1.88455 7.5,2.49633 6.3018,1.328 7.77835,2.36108 7.77835,5.44215 0,3.06966 1.65908,3.95698 4.52789,2.42164 1.28545,-0.68795 3.04255,-0.98015 3.90465,-0.64933 2.21391,0.84956 1.98597,6.24575 -0.36306,8.59478 -1.90735,1.90735 -1.90135,1.94962 0.5,3.52305 2.02154,1.32456 2.43052,2.40939 2.43052,6.44704 0,6.11973 -1.63194,7.77195 -6.12833,6.2045 -4.35046,-1.51658 -4.87167,-1.4138 -4.87167,0.96063 0,1.13616 -0.43934,2.88666 -0.97632,3.89001 -0.85905,1.60515 -0.44147,1.90447 3.47669,2.49204 2.44916,0.36727 4.74615,1.14208 5.10444,1.72179 0.86734,1.40339 -1.47685,2.79614 -4.73818,2.81511 -3.0736,0.0179 -4.26,2.85047 -2.80108,6.68773 1.59869,4.20486 1.16297,15.89303 -0.64852,17.39643 -1.31713,1.09312 -5.38953,0.83211 -24.25,-1.55426 C 193.69346,275.92133 195,275.97104 195,278.44618 c 0,1.85988 1.66667,2.21018 23.78895,5 13.08393,1.65 23.79768,3.4188 23.80834,3.93066 0.0107,0.51186 -1.46937,1.41186 -3.28895,2 -2.56808,0.83006 -3.38084,1.70225 -3.63235,3.89792 -0.25459,2.22261 -0.68306,2.67042 -2,2.09026 -0.92179,-0.40607 -4.94238,-1.1904 -8.93464,-1.74293 -5.81569,-0.8049 -7.78645,-0.72345 -9.91364,0.40974 -2.0746,1.10517 -2.74673,1.1411 -3.07468,0.16435 -0.23083,-0.6875 -1.1123,-1.25 -1.95881,-1.25 -1.2543,0 -1.30889,0.2774 -0.29497,1.4991 1.76111,2.12201 -0.51563,7.34142 -3.5327,8.09865 -4.92762,1.23676 -8.47636,-3.4382 -7.01868,-9.24609 l 0.6647,-2.64834 -5.95533,0.62246 c -4.59858,0.48064 -6.23403,0.28662 -7.17872,-0.85166 -0.85172,-1.02626 -3.23695,-1.47581 -7.85096,-1.4797 -3.64516,-0.003 -8.40082,-0.49789 -10.56813,-1.09962 -3.41589,-0.94838 -4.11533,-0.85505 -5.25307,0.7009 -0.93941,1.28473 -2.4256,1.72928 -5.22833,1.5639 -2.15371,-0.12708 -4.17784,0.19288 -4.49807,0.71101 -1.31865,2.13363 -2.239,13.16651 -1.16628,13.9811 0.59747,0.4537 11.88632,1.6139 25.08632,2.57822 50.20659,3.66781 71.49096,5.44645 72.4783,6.05666 1.5108,0.93373 1.26996,8.48091 -0.28973,9.07942 -1.1477,0.44042 -68.59966,-3.42397 -90.07201,-5.16031 l -7.88344,-0.63749 0.4639,5.59411 c 0.37629,4.53746 1.00405,6.09468 3.32353,8.24431 l 2.85963,2.65021 33.55991,0.51718 c 18.45795,0.28445 36.80244,0.52509 40.76553,0.53475 5.07864,0.0124 7.35705,0.41217 7.71862,1.35439 0.29416,0.76657 2.01942,1.33684 4.04438,1.33684 2.59557,0 3.53138,0.43137 3.53138,1.62781 0,1.34787 -0.71101,1.51411 -4.13445,0.96668 -4.5813,-0.73258 -7.86555,1.17165 -7.86555,4.5605 0,1.01475 -0.675,1.84501 -1.5,1.84501 -0.825,0 -1.5,-0.40433 -1.5,-0.89851 0,-1.29081 -13.43595,-2.4602 -15.64568,-1.36171 -1.09602,0.54485 -6.93982,0.59509 -14.29023,0.12286 -8.61447,-0.55344 -12.83972,-0.46382 -13.75,0.29165 -0.95715,0.79436 -1.72047,0.75334 -2.81017,-0.15103 -2.17483,-1.80496 -9.15382,-2.06629 -12.25226,-0.4588 -2.29787,1.19215 -2.89747,1.18107 -4.29017,-0.0793 -2.29938,-2.08092 -5.63117,-1.83632 -6.231,0.45744 -0.3112,1.19003 -1.55554,2.04734 -3.26577,2.25 -3.12066,0.36979 -5.49096,3.21326 -3.94224,4.7292 0.53763,0.52626 8.40252,1.02728 17.47752,1.11337 20.25096,0.19212 19,0.29188 19,-1.51516 0,-0.825 0.45,-1.5 1,-1.5 0.55,0 1,0.62686 1,1.39301 0,0.76616 0.7118,1.66616 1.58179,2 0.86998,0.33385 12.08784,0.60699 24.92857,0.60699 23.93564,0 25.3968,0.22147 26.67045,4.04243 0.22696,0.68088 6.51072,1.29624 17.05347,1.67003 13.33242,0.4727 17.0264,0.31608 18.34438,-0.77775 1.3363,-1.10903 7.4897,-1.31192 32.34042,-1.06637 29.91914,0.29564 30.79552,0.24832 34.88552,-1.88351 L 354.5,352.74426 V 209.41779 66.091345 l 2.63055,-2.069189 c 1.4468,-1.138053 4.4818,-2.567681 6.74446,-3.17695 5.33218,-1.435807 23.13126,-0.672962 27.45356,1.176626 3.20515,1.371526 2.99008,1.424343 -5.80007,1.424343 h -9.12865 l -0.43256,83.499995 c -0.23791,45.925 -0.76089,105.77501 -1.16218,133.00001 -0.94657,64.21826 -0.99762,60.89818 1.01735,66.1743 1.65019,4.32096 1.98669,4.59623 6.34961,5.19423 2.53389,0.34731 7.454,0.63147 10.93357,0.63147 6.63597,0 12.85626,2.15535 13.87394,4.80738 0.31212,0.81338 0.35338,1.693 0.0917,1.9547 -0.26171,0.2617 -4.4348,0.40256 -9.27354,0.31301 -4.83875,-0.0895 -13.91202,0.14629 -20.16284,0.52408 l -11.36511,0.68688 0.58774,6.60697 c 0.32326,3.63384 0.88317,10.31948 1.24424,14.85698 l 0.6565,8.25 3.12088,0.0153 c 5.50489,0.027 6.46355,1.70033 1.53284,2.67554 l -4.41197,0.87261 -0.11144,21.16316 c -0.11382,21.61749 -1.14724,45.48093 -2.07417,47.89647 -1.386,3.61186 -11.09283,7.2432 -31.81439,11.90181 -11.55,2.59667 -23.6631,5.22833 -26.91799,5.84815 -3.33916,0.63587 -6.11954,1.73332 -6.38051,2.51848 -0.3372,1.0145 0.18246,1.2483 1.91799,0.86292 8.5077,-1.88917 18.35698,-4.12912 31.88051,-7.25036 8.525,-1.96757 20.225,-4.49826 26,-5.62375 11.68418,-2.27714 49.85926,-10.97294 60.10239,-13.69057 3.63132,-0.96344 7.37596,-2.52527 8.32143,-3.47074 1.93001,-1.93002 4.57616,-2.29166 4.57616,-0.6254 0,0.60149 -0.96654,1.34637 -2.14786,1.6553 -2.05761,0.53807 -2.07037,0.61834 -0.30375,1.91012 2.81935,2.06156 0.65426,3.37716 -7.17674,4.36088 -8.14065,1.02262 -16.83104,2.90585 -52.87165,11.45742 -14.85,3.52354 -34.875,8.24492 -44.5,10.49196 -9.625,2.24703 -19.75,5.05981 -22.5,6.25061 -6.46254,2.79841 -21.95792,2.92133 -42.2284,0.33498 -10.93717,-1.39549 -14.86951,-1.55748 -17,-0.70028 -1.52438,0.61332 -12.8966,3.16414 -25.2716,5.66847 -12.375,2.50434 -23.5125,4.9765 -24.75,5.49369 -2.65675,1.11035 -3.01875,3.98736 -0.5,3.97382 2.26427,-0.0122 19.30972,-3.43249 30.45146,-6.11034 8.54071,-2.05271 8.77578,-2.05707 12.7242,-0.2358 2.21251,1.02055 4.03435,2.36346 4.04854,2.98423 0.0481,2.1037 -9.3486,4.79078 -28.9742,8.28545 -6.325,1.12627 -14.65,2.96956 -18.5,4.09618 -3.85,1.12663 -11.55391,3.13693 -17.1198,4.46734 -9.01563,2.15499 -12.75173,2.77079 -23.8802,3.93601 -1.65,0.17277 -6.54835,-0.0587 -10.88522,-0.51443 z m 30.67475,-11.494 c 8.91446,-1.97712 16.54614,-3.80368 16.95929,-4.05902 1.0682,-0.66018 0.934,-4.34622 -0.15824,-4.34622 -0.50018,0 -8.38441,1.575 -17.52051,3.5 -9.1361,1.925 -16.82686,3.5 -17.09058,3.5 -0.26372,0 -0.47949,1.125 -0.47949,2.5 0,1.375 0.46832,2.5 1.04072,2.5 0.57239,0 8.33436,-1.61764 17.24881,-3.59476 z M 295.5,485.06861 c 0,-0.48265 -0.675,-1.43775 -1.5,-2.12244 -0.825,-0.68469 -1.5,-1.00159 -1.5,-0.70423 0,0.29737 -0.27314,1.25246 -0.60699,2.12244 -0.43514,1.13395 -0.0104,1.58179 1.5,1.58179 1.15885,0 2.10699,-0.3949 2.10699,-0.87756 z M 173.78125,460.8879 c 16.34877,-2.36662 18.71875,-3.11618 18.71875,-5.92029 0,-1.69043 -0.69593,-2.04343 -4.25,-2.15574 -6.15516,-0.19448 -12.64023,0.21149 -17.46835,1.09358 -4.93238,0.90114 -6.30165,0.1761 -3.06301,-1.62188 2.16412,-1.20144 2.08542,-1.26835 -1.5315,-1.30196 -3.38768,-0.0315 -3.77797,0.21528 -3.5,2.21296 0.25899,1.86127 -0.33282,2.40818 -3.43714,3.17637 -3.22886,0.799 -3.75,1.32038 -3.75,3.7516 0,3.46564 -0.28898,3.45354 18.28125,0.76536 z m 70.5383,-10.89248 c 0.17575,-0.0271 0.17575,-1.06175 0,-2.29924 -0.28644,-2.01688 -0.88041,-2.25 -5.73277,-2.25 -3.43985,0 -5.56637,-0.45568 -5.83333,-1.25 -0.27102,-0.80639 -2.25371,-1.20801 -5.58678,-1.13169 -7.87883,0.18043 -11.21708,1.15189 -10.87283,3.16411 0.36485,2.13272 -2.62292,2.32657 -3.4303,0.22256 -0.95623,-2.4919 -8.40025,-0.81696 -11.08349,2.49385 -1.22097,1.50653 -3.58347,3.01185 -5.25,3.34516 -2.12497,0.42499 -3.03005,1.18599 -3.03005,2.54768 0,1.06791 0.49771,2.10757 1.10602,2.31034 0.60831,0.20277 11.97081,-1.31257 25.25,-3.36742 13.27919,-2.05485 24.28778,-3.75825 24.46353,-3.78535 z M 178.5,450.94618 c 1.1647,-0.75269 0.87209,-0.9728 -1.30902,-0.98469 -1.62108,-0.009 -2.54765,0.40759 -2.19098,0.98469 0.76737,1.24163 1.57871,1.24163 3.5,0 z m 6,-1 c 0,-0.55 -1.0125,-0.99311 -2.25,-0.98469 -1.81944,0.0124 -1.96296,0.20082 -0.75,0.98469 1.93876,1.25292 3,1.25292 3,0 z m -9.5,-9.04057 c 11.24635,-1.4316 16.34137,-2.48664 17.149,-3.55108 0.85727,-1.12986 1.25515,-1.1959 1.5671,-0.26006 0.33443,1.00328 2.60595,1.0095 11.351,0.0311 25.48536,-2.85138 37.98768,-4.54995 38.81568,-5.27352 0.48553,-0.42428 0.64379,-1.39423 0.35169,-2.15543 -0.44319,-1.15493 -4.56158,-0.9116 -24.88278,1.4702 -13.39343,1.56981 -27.25786,3.06871 -30.80985,3.33089 -3.55198,0.26219 -12.10198,1.14127 -19,1.95351 -6.89801,0.81225 -12.87934,1.4809 -13.29184,1.4859 -0.4125,0.005 -0.75,1.13407 -0.75,2.50907 0,3.05295 -0.73756,3.03558 19.5,0.45944 z m 18.05385,-162.04656 c 0.36954,-0.59793 0.16192,-1.5971 -0.46137,-2.22039 -1.15408,-1.15409 -33.97392,-5.80732 -35.34248,-5.0109 -0.4125,0.24005 -0.75,1.3099 -0.75,2.37744 0,1.06754 0.3375,1.97924 0.75,2.026 0.4125,0.0468 6.6,0.8835 13.75,1.85942 15.82143,2.15952 21.17249,2.3945 22.05385,0.96843 z M 201,251.94618 c -3.48832,-2.31023 -5.5,-2.55406 -5.5,-0.66667 0,2.09313 1.06101,2.66717 4.91667,2.66008 L 204,253.93259 Z m -8.5,-1.02475 c 0,-1.2605 -0.98163,-2.39797 -2.60065,-3.01352 -1.43036,-0.54382 -3.34286,-1.83863 -4.25,-2.87735 -1.09694,-1.25605 -4.16129,-2.28751 -9.14935,-3.07967 -4.125,-0.65509 -8.9625,-1.42338 -10.75,-1.7073 -2.02388,-0.32147 -3.25,-0.0977 -3.25,0.59318 0,0.61018 -1.35,1.1094 -3,1.1094 -2.54325,0 -3,0.38541 -3,2.53139 0,1.39227 0.63499,2.77506 1.41108,3.07287 1.92407,0.73833 28.41684,5.12928 31.83892,5.27701 2.13363,0.0921 2.75,-0.33509 2.75,-1.90601 z m 5.04856,-17.22525 c 0.17931,-0.92326 2.18562,-21.2751 2.53846,-25.75 0.39707,-5.03588 0.0705,-6.13289 -3.87034,-13 -4.04952,-7.05655 -4.50837,-7.5 -7.76034,-7.5 -3.06989,0 -3.69918,0.48117 -5.62826,4.30346 -1.19456,2.3669 -2.75454,5.00547 -3.46663,5.86348 -0.71208,0.85801 -1.53472,3.64132 -1.82807,6.18513 -0.38043,3.29879 -1.02387,4.71892 -2.2438,4.95223 -2.40446,0.45983 -8.78958,-2.74976 -8.78958,-4.41824 0,-0.76233 -0.9,-2.28606 -2,-3.38606 -1.1,-1.1 -2,-3.125 -2,-4.5 0,-3.27664 0.61012,-3.15462 2.5,0.5 0.85325,1.65 2.04906,3 2.65735,3 1.76169,0 0.27409,-7.90213 -1.9481,-10.34829 -1.07508,-1.18344 -2.20144,-2.82671 -2.50302,-3.65171 -0.30159,-0.825 -0.59817,0.525 -0.65909,3 -0.0976,3.96371 -0.26906,4.29144 -1.43919,2.75 -0.73064,-0.9625 -1.7567,-1.75 -2.28013,-1.75 -1.30977,0 -5.32782,5.58119 -5.32782,7.40049 0,0.81481 -0.45,1.75959 -1,2.09951 -1.91899,1.186 -1.07388,4.35041 1.25,4.68045 2.15014,0.30537 2.27219,0.82994 2.75,11.81955 l 0.5,11.5 16.5,3.16625 c 14.22266,2.72924 23.87697,3.96721 24.04856,3.08375 z m -17.40454,-10.28606 c -5.89083,-1.28349 -8.61448,-2.82681 -7.30309,-4.1382 0.91234,-0.91235 15.76883,1.55239 17.39806,2.8864 0.68144,0.55796 0.99239,1.41349 0.69098,1.90117 -0.69342,1.12198 -3.40534,0.95871 -10.78595,-0.64937 z m -47.26831,-15.33088 c 2.68163,-0.507 5.29264,-1.53185 5.80223,-2.27744 1.37816,-2.01641 0.33213,-12.96857 -1.59445,-16.69416 -0.92383,-1.78649 -2.7875,-3.75292 -4.14148,-4.36985 -2.09537,-0.95471 -2.82811,-0.77753 -4.92288,1.19041 -1.3536,1.27164 -2.9579,3.81743 -3.56511,5.65731 -0.60722,1.83987 -1.83357,3.7535 -2.72524,4.2525 -1.16065,0.64954 -1.74023,2.77659 -2.0402,7.48754 l -0.419,6.58027 4.36521,-0.45238 c 2.40086,-0.24881 6.55928,-0.8672 9.24092,-1.3742 z m 19.58885,-17.62361 c -0.0195,-1.1052 -0.67854,-3.13445 -1.46456,-4.50945 -1.38069,-2.41527 -1.43033,-2.42574 -1.46456,-0.30902 -0.0195,1.20504 -0.48544,2.4691 -1.03544,2.80902 -1.09054,0.67399 -1.37051,4.79616 -0.39219,5.77448 1.11148,1.11148 4.39274,-1.72412 4.35675,-3.76503 z M 250.75,250.24045 c -2.24275,-0.43198 -3.05694,-2.67752 -1.35271,-3.73079 0.49352,-0.30501 2.29352,-0.27532 4,0.066 2.14646,0.42929 3.10271,1.19841 3.10271,2.49554 0,1.87758 -1.00816,2.08259 -5.75,1.16927 z"
         style="fill:#a6a6a6" />
      <path
         inkscape:connector-curvature="0"
         id="path3741"
         d="m 146,518.2275 c -1.65,-0.23045 -8.4012,-1.48365 -15.00267,-2.78487 -6.60147,-1.30124 -17.62647,-3.08794 -24.5,-3.97046 -11.64155,-1.49471 -26.855753,-3.84254 -33.24733,-5.13068 -2.693263,-0.5428 -3.963883,-3.40791 -1.5,-3.38234 0.6875,0.007 6.875,0.90552 13.75,1.99642 6.875,1.0909 17.225,2.68231 23,3.53648 5.775,0.85417 13.875,2.17222 18,2.92901 4.125,0.7568 12.45,2.11452 18.5,3.01718 13.11691,1.95705 14.70649,2.36481 13.9555,3.57993 -0.56656,0.91672 -7.13127,1.02279 -12.9555,0.20933 z m 41.5,-8.0577 c 0,-0.5553 0.72134,-1.28645 1.60298,-1.62476 2.44063,-0.93656 15.63753,-3.59711 17.84702,-3.59804 3.86552,-0.002 -0.036,1.77895 -7.45,3.40001 -4.125,0.90192 -8.5125,1.90819 -9.75,2.23615 -1.24139,0.32898 -2.25,0.14369 -2.25,-0.41336 z m -35.4903,-5.20793 c -0.83106,-1.34468 0.37121,-38.32354 1.27087,-39.08873 0.39569,-0.33654 4.99443,-1.10746 10.21943,-1.71316 5.225,-0.6057 26.09426,-3.61983 46.37614,-6.69806 20.28188,-3.07823 37.15492,-5.31802 37.49564,-4.97729 0.97776,0.97776 0.12272,27.60431 -1.00166,31.19217 -1.19341,3.8081 0.28816,3.33038 -30.37012,9.79266 -62.85148,13.2481 -62.89986,13.25679 -63.9903,11.49241 z m -26.46906,-33.26569 0.0406,-9.25 2.95936,3.46223 c 3.54827,4.1512 3.86733,8.61374 0.88678,12.40291 -1.13992,1.44917 -2.48992,2.63486 -3,2.63486 -0.51008,0 -0.90913,-4.1625 -0.88678,-9.25 z M 287.5,477.06454 284,476.44618 283.74182,418.5585 c -0.18951,-42.49072 0.0477,-58.25622 0.89178,-59.2733 0.93769,-1.12985 6.92708,-1.37179 32.44617,-1.31063 l 31.2962,0.075 3.90032,-2.46217 c 3.88733,-2.45396 3.96838,-2.4606 24.31202,-1.99264 11.22643,0.25824 21.53033,0.70317 22.89756,0.98872 5.24508,1.09547 -0.72192,2.10589 -16.18202,2.74017 -8.63289,0.35418 -16.43272,0.92661 -17.33297,1.27207 -1.46053,0.56046 -1.5471,2.0401 -0.80384,13.73928 1.00177,15.76833 1.05033,84.03208 0.0624,87.72516 -0.86974,3.25128 -2.36245,3.6841 -40.80155,11.83063 -28.6338,6.06845 -30.43517,6.32083 -36.92788,5.17374 z m -94.74828,-26.83625 c -0.77716,-0.27869 -1.0193,-1.35994 -0.64159,-2.86487 0.50337,-2.0056 0.23345,-2.41724 -1.58506,-2.41724 -3.9716,0 -1.51517,-2.48017 3.05488,-3.0844 2.43103,-0.32142 6.61495,-0.94362 9.29761,-1.38268 6.87022,-1.12439 5.82667,1.58655 -1.1398,2.96096 -5.9518,1.17424 -6.96757,1.92181 -5.31569,3.91222 0.96934,1.16798 0.8497,1.63848 -0.6075,2.38902 -0.99802,0.51405 -2.3763,0.73319 -3.06285,0.48699 z M 134.25,446.24045 c 1.2375,-0.23836 3.2625,-0.23836 4.5,0 1.2375,0.23835 0.225,0.43337 -2.25,0.43337 -2.475,0 -3.4875,-0.19502 -2.25,-0.43337 z m -33.48625,-3.01185 c 1.52006,-0.22986 3.77006,-0.22371 5,0.0136 1.22994,0.23736 -0.0138,0.42541 -2.76375,0.41792 -2.75,-0.008 -3.75631,-0.20173 -2.23625,-0.43158 z M 246.5,442.94618 c -0.825,-0.53316 -3.1875,-0.97627 -5.25,-0.98469 -3.4966,-0.0143 -3.75,-0.21803 -3.75,-3.01531 0,-2.79728 0.2534,-3.00103 3.75,-3.01531 2.0625,-0.008 4.3875,-0.41883 5.16667,-0.91203 1.60549,-1.01623 1.91699,-6.639 0.44912,-8.10688 -0.6234,-0.6234 -17.07717,0.81124 -46.25824,4.03333 -24.90988,2.75048 -45.92953,5.00088 -46.71034,5.00088 -1.20724,0 -1.38056,-6.09687 -1.15843,-40.75 l 0.26122,-40.75 21.5,0.17959 c 11.825,0.0988 32.36793,0.21128 45.65094,0.25 l 24.15095,0.0704 1.84905,4.5209 c 1.5818,3.86745 2.42721,4.68203 5.84906,5.63573 l 4,1.11483 -2.75,0.94761 c -1.5125,0.52118 -2.75,1.421 -2.75,1.99959 0,0.5786 -1.15912,2.12624 -2.57583,3.43919 -3.03492,2.81268 -2.80496,4.19124 1.05612,6.33123 3.57956,1.98397 5.02907,4.24116 4.16671,6.48845 -0.65944,1.71846 -1.79474,1.71216 -6.06017,-0.0337 -1.84811,-0.75643 -1.89066,-0.30973 -1.25148,13.13655 0.72755,15.30526 1.48617,17.06682 6.89495,16.01063 2.10357,-0.41077 2.9973,-0.0343 3.8934,1.64011 0.74408,1.39032 0.80226,2.29354 0.16151,2.50712 -4.19429,1.3981 -7.17101,9.81975 -7.25008,20.51174 -0.0362,4.89154 -0.45946,5.41452 -3.03513,3.75 z m -165.75,-0.7404 c -3.4375,-0.19527 -6.25,-0.74089 -6.25,-1.21249 0,-0.88933 8.80672,-0.41668 17.5,0.93923 l 5,0.77985 -5,-0.0758 c -2.75,-0.0417 -7.8125,-0.23555 -11.25,-0.43082 z m 179.82895,-38.84294 c 0.048,-1.16494 0.28494,-1.4019 0.60416,-0.60417 0.28887,0.72187 0.25335,1.58438 -0.0789,1.91667 -0.33229,0.33229 -0.56864,-0.25833 -0.52522,-1.3125 z m -9.63782,-2.92417 c -1.79698,-1.39554 -1.57563,-1.48836 2.9807,-1.25 2.85006,0.14911 5.09505,0.78367 5.33333,1.5075 0.59586,1.81001 -5.9113,1.60848 -8.31403,-0.2575 z m 1.62862,-7.90958 c -2.40357,-1.33144 -2.38476,-1.3539 1.7133,-2.04627 4.89379,-0.8268 6.87606,-0.0358 5.14306,2.05239 -1.45163,1.7491 -3.69136,1.74711 -6.85636,-0.006 z M 76.5,340.57118 c 0,-0.95833 -0.820513,-1.625 -2,-1.625 -2.384246,0 -2.652613,-1.53559 -0.418213,-2.39301 0.869984,-0.33385 9.982483,-0.55068 20.250003,-0.48183 18.54148,0.12431 19.72406,1.48469 1.66821,1.91902 -13.96184,0.33585 -14.918531,1.69635 -1.20137,1.70846 7.03925,0.006 13.07675,0.2894 13.41667,0.62932 0.33992,0.33993 -5.25072,0.61803 -12.42363,0.61803 -7.17292,0 -14.44792,0.28125 -16.16667,0.625 -2.474359,0.49487 -3.125,0.28667 -3.125,-0.99999 z m 53.5,-0.625 c -0.33992,-0.55 -0.11492,-1 0.5,-1 0.61492,0 0.83992,-0.45 0.5,-1 -0.33992,-0.55 -3.85398,-1.05176 -7.80902,-1.115 -6.69391,-0.10705 -6.91448,-0.17766 -3.19098,-1.02137 2.2,-0.49851 10.15473,-1.08169 17.67718,-1.29595 11.11328,-0.31655 13.77868,-0.12509 14.21862,1.02137 0.35586,0.92736 2.09452,1.41095 5.07282,1.41095 4.76862,0 5.84371,1.22729 2.59712,2.96482 -2.50589,1.34111 -28.73934,1.37232 -29.56574,0.0352 z m 63.33733,0.28968 c -4.42047,-0.37176 -6.65473,-2.15808 -5.34661,-4.27466 0.58839,-0.95204 21.28394,-0.57369 22.26467,0.40704 0.37063,0.37063 0.19321,1.43977 -0.39427,2.3759 -1.11897,1.78304 -6.87784,2.30293 -16.52379,1.49172 z M 199.5,317.37993 c -18.425,-1.25848 -37.46466,-2.32091 -42.31037,-2.36095 l -8.81036,-0.0728 0.31036,-3.75 c 0.21401,-2.58574 0.74508,-3.65684 1.71053,-3.44995 0.77008,0.16503 22.59508,1.87835 48.5,3.80736 25.90491,1.92904 47.66234,3.69239 48.34984,3.91857 0.6875,0.22618 1.25,1.32536 1.25,2.44263 0,1.87906 -0.58112,2.02096 -7.75,1.89234 -4.2625,-0.0765 -22.825,-1.16873 -41.25,-2.42719 z m 3.5,-18.43376 c -0.33992,-0.55 -0.14148,-1 0.44098,-1 0.58246,0 1.05902,0.45 1.05902,1 0,0.55 -0.19844,1 -0.44098,1 -0.24254,0 -0.7191,-0.45 -1.05902,-1 z M 75.874561,290.74322 c -0.616874,-0.99813 -1.806888,-0.86811 11.625439,-1.27029 12.8536,-0.38486 12.17369,0.0936 -1.81642,1.27837 -5.124034,0.43392 -9.538092,0.43027 -9.809019,-0.008 z m -3.263778,-3.16355 c -0.664345,-0.8005 -0.848548,-1.67673 -0.409341,-1.94721 0.439207,-0.27048 8.673558,-1.01117 18.298558,-1.64598 9.625,-0.63482 22,-1.59396 27.5,-2.13143 22.54332,-2.20299 39.25787,-3.21369 41.07295,-2.48364 1.86504,0.75015 1.86004,0.80101 -0.1554,1.58072 -1.14535,0.4431 -9.02035,1.31254 -17.5,1.93207 -8.47965,0.61954 -23.06755,1.78686 -32.41755,2.59405 -9.35,0.80718 -19.925,1.71161 -23.5,2.00984 -3.575,0.29823 -7.665796,0.76831 -9.090658,1.04462 -1.579439,0.30628 -3.062142,-0.0657 -3.798559,-0.95304 z M 201,287.94618 c -1.65,-0.41985 -4.8225,-0.81661 -7.05,-0.88169 -4.20713,-0.1229 -6.45,-1.49556 -6.45,-3.94748 0,-1.56118 6.71022,-1.19206 18.29038,1.00612 5.7119,1.08425 5.7633,1.12439 3.79182,2.9611 -2.10122,1.95758 -3.66086,2.11422 -8.5822,0.86195 z m -64.75,-1.66228 c 0.6875,-0.27741 1.8125,-0.27741 2.5,0 0.6875,0.2774 0.125,0.50439 -1.25,0.50439 -1.375,0 -1.9375,-0.22699 -1.25,-0.50439 z m 7.51903,-1.03071 c 0.97297,-0.25354 2.32297,-0.23687 3,0.0371 0.67703,0.27393 -0.11903,0.48137 -1.76903,0.46099 -1.65,-0.0204 -2.20394,-0.24451 -1.23097,-0.49804 z M 216,276.49135 c -13.75,-1.79564 -33.4375,-4.33828 -43.75,-5.65028 L 153.5,268.4556 v -9.25471 c 0,-7.64367 0.26656,-9.25471 1.53125,-9.25471 1.49251,0 27.96887,3.96407 39.96875,5.98417 3.3,0.55553 15,2.37336 26,4.03963 11,1.66629 21.03223,3.46693 22.29384,4.00144 2.13443,0.90429 2.27342,1.47576 2,8.2233 -0.26035,6.425 -0.52178,7.26913 -2.29384,7.40645 -1.1,0.0853 -13.25,-1.31417 -27,-3.10982 z m -88.93585,-7.60825 c -0.2841,-0.7903 -0.63976,-4.36192 -0.79035,-7.93692 l -0.2738,-6.5 -4,-0.60809 c -2.2,-0.33446 -2.95792,-0.67196 -1.68426,-0.75 1.27366,-0.078 3.1246,-0.5748 4.1132,-1.10388 1.46106,-0.78194 2.4157,-0.19264 5.10092,3.14876 4.09469,5.09529 4.30175,8.93614 0.67715,12.56074 -2.02328,2.02328 -2.74492,2.29638 -3.14286,1.18939 z m 96.37512,-15.39551 c -12.88168,-2.32643 -15.85405,-3.34971 -19.58454,-6.7423 -1.75845,-1.59917 -2.75016,-1.78727 -5.5,-1.04314 -1.8563,0.50232 -4.74722,0.53879 -6.47229,0.0816 -2.72935,-0.72328 -3.18833,-1.35372 -3.68581,-5.06274 -0.31254,-2.33012 -0.39431,-4.41052 -0.18173,-4.62311 0.21259,-0.21258 3.4462,0.0561 7.18581,0.59699 3.73961,0.54092 7.36179,0.7706 8.04929,0.51039 0.8797,-0.33296 1.27196,-3.47791 1.32412,-10.61613 0.0408,-5.57865 0.38215,-12.16801 0.75862,-14.64301 0.64476,-4.23872 0.85818,-4.4887 3.67588,-4.30533 4.24586,0.27631 18.60941,3.66921 20.99138,4.9585 1.1,0.59539 4.34021,1.63154 7.20047,2.30254 2.86026,0.67101 5.72999,1.85804 6.37718,2.63785 1.48525,1.78962 2.04766,22.48 0.75346,27.71887 l -0.94182,3.81244 -4.69465,-0.63124 c -5.06036,-0.68042 -7.99049,-1.15705 -12.69464,-2.06498 -1.65,-0.31845 -4.125,-0.74922 -5.5,-0.95726 -1.375,-0.20804 -3.5125,-0.6767 -4.75,-1.04146 -1.62534,-0.47907 -2.25,-0.24837 -2.25,0.83099 0,2.53154 2.18048,3.52248 11.50926,5.23049 12.258,2.24432 16.49074,3.41145 16.49074,4.54713 0,1.38607 -3.8743,1.06491 -18.06073,-1.49713 z M 72.559242,243.51756 c -0.739334,-0.89084 -1.081256,-1.8827 -0.759826,-2.20413 0.321429,-0.32143 7.923055,-1.44082 16.892504,-2.48753 23.1629,-2.70306 36.27083,-4.42091 52.30808,-6.8552 13.36442,-2.02858 20.5,-2.02797 20.5,0.002 0,0.5146 -1.0125,1.15719 -2.25,1.42797 -3.21672,0.70387 -23.07301,3.32786 -30.75,4.06359 -3.575,0.34261 -10.39687,1.27305 -15.15971,2.06765 -4.76284,0.7946 -13.76284,2.08367 -20,2.8646 -6.23716,0.78093 -13.162006,1.71714 -15.388547,2.08045 -3.095183,0.50506 -4.364731,0.27925 -5.392501,-0.95914 z M 101.25,243.2839 c 0.6875,-0.27741 1.8125,-0.27741 2.5,0 0.6875,0.27741 0.125,0.50439 -1.25,0.50439 -1.375,0 -1.9375,-0.22698 -1.25,-0.50439 z m 53.25,-59.83772 c 0,-3.01085 2.46778,-3.36298 3.96482,-0.56574 1.47802,2.76171 1.33276,3.06574 -1.46482,3.06574 -2,0 -2.5,-0.5 -2.5,-2.5 z m 27.07669,0.6433 c -0.59218,-1.1065 -1.07669,-3.85254 -1.07669,-6.10231 0,-3.48398 0.38513,-4.23692 2.59746,-5.07804 2.90257,-1.10356 10.38286,0.43306 11.63723,2.39054 0.40408,0.63058 0.74158,2.83401 0.75,4.89651 0.0161,3.93036 -0.0553,3.98106 -5.98469,4.25139 -1.925,0.0878 -4.25299,0.49576 -5.17331,0.90665 -1.15727,0.51668 -2.00535,0.12664 -2.75,-1.26474 z M 162.5,180.44618 c -3.2165,-4.67503 -5.98026,-5.6513 -9.96352,-3.51952 -2.42893,1.29992 -5.03648,-2.54283 -5.03648,-7.42224 0,-5.04206 2.90337,-6.72449 9.45881,-5.48115 2.72734,0.51729 5.35765,1.33937 5.84514,1.82686 0.48748,0.48748 0.95602,3.29602 1.04119,6.24119 0.0852,2.94517 0.71736,5.9495 1.40486,6.67629 1.16446,1.231 1.8035,6.17857 0.79804,6.17857 -0.24858,0 -1.8452,-2.025 -3.54804,-4.5 z m -38.72836,-0.20936 c -1.57877,-2.40821 -0.90612,-8.21188 1.10399,-9.52533 1.88107,-1.22913 7.55605,-0.852 10.56079,0.70181 2.12931,1.10111 2.94037,2.35181 3.25109,5.01336 0.6132,5.25247 -0.31596,6.01952 -7.29168,6.01952 -5.26715,0 -6.38889,-0.32506 -7.62419,-2.20936 z m 60.34914,-13.35547 -1.73385,-2.93517 h 3.05653 c 3.51325,0 3.4849,-0.0543 1.73385,3.32087 l -1.32268,2.54948 z M 131.5,167.02797 c 0,-0.50502 -0.27314,-1.63002 -0.60699,-2.5 -0.47323,-1.23322 0.0777,-1.58179 2.5,-1.58179 3.54209,0 3.91015,0.96318 1.27825,3.34501 -2.04432,1.85009 -3.17126,2.11191 -3.17126,0.73678 z m 24.60699,-7.66358 c -1.08091,-2.8168 -0.65988,-3.41821 2.39301,-3.41821 3.14547,0 3.93443,1.66557 1.8,3.8 -1.66373,1.66373 -3.47123,1.49915 -4.19301,-0.38179 z"
         style="fill:#464646" />
    </g>
    <rect
       style="fill:none"
       y="35.108967"
       x="34.456478"
       height="521.09088"
       width="428.69888"
       id="rect3758" />
    <rect
       y="20"
       x="20"
       height="548.80847"
       width="704.02704"
       id="rect3772"
       style="fill:none" />
    <rect
       y="20"
       x="20"
       height="520.76465"
       width="859.57184"
       id="rect41"
       style="fill:none" />
  </g>
</svg>
